<?xml version="1.0" standalone="no"?>
<!DOCTYPE svg PUBLIC "-//W3C//DTD SVG 20010904//EN"
 "http://www.w3.org/TR/2001/REC-SVG-20010904/DTD/svg10.dtd">
<svg version="1.0" xmlns="http://www.w3.org/2000/svg"
 width="512.000000pt" height="512.000000pt" viewBox="0 0 512.000000 512.000000"
 preserveAspectRatio="xMidYMid meet">
<metadata>
Created by potrace 1.14, written by Peter Selinger 2001-2017
</metadata>
<g transform="translate(0.000000,512.000000) scale(0.100000,-0.100000)"
fill="#000000" stroke="none">
<path d="M2419 5036 c-2 -2 -35 -6 -74 -9 -762 -59 -1495 -549 -1878 -1258
-123 -227 -231 -543 -262 -767 -3 -20 -7 -46 -10 -57 -27 -138 -27 -573 1
-720 2 -10 6 -37 9 -60 17 -115 102 -411 150 -520 133 -300 282 -534 461 -725
23 -25 51 -54 61 -65 10 -11 45 -45 78 -75 237 -216 479 -368 763 -479 57 -22
126 -47 155 -55 110 -31 204 -55 264 -65 35 -6 75 -14 90 -16 102 -20 438 -27
583 -13 67 7 99 11 220 33 121 21 369 95 436 130 16 8 33 15 37 15 31 0 334
168 427 236 114 84 137 101 180 138 355 302 613 693 758 1146 36 113 88 363
99 475 15 155 9 502 -11 610 -2 11 -7 43 -11 70 -5 28 -9 52 -10 55 -1 6 -13
67 -19 96 -13 63 -73 254 -112 354 -295 746 -954 1310 -1724 1475 -85 19 -96
21 -163 30 -27 4 -59 9 -70 11 -28 6 -422 15 -428 10z"/>
</g>
</svg>
