<?xml version="1.0" encoding="utf-8"?>
<!-- Generator: Adobe Illustrator 20.1.0, SVG Export Plug-In . SVG Version: 6.00 Build 0)  -->
<svg version="1.1" id="Слой_1" xmlns="http://www.w3.org/2000/svg" xmlns:xlink="http://www.w3.org/1999/xlink" x="0px" y="0px"
	 width="65px" height="65px" viewBox="0 0 65 65" style="enable-background:new 0 0 65 65;" xml:space="preserve">
<g>
	<g>
		<path style="fill:#55BEFF;" d="M20.353,54.788h1.942v-8.024h-1.942V54.788z M22.303,40.682h-1.939v3.959h1.939V40.682z
			 M20.376,58.849h1.939v-1.929h-1.939V58.849z M16.305,38.545h1.942v-1.921h-1.942V38.545z M16.312,48.693h1.919V42.69h-1.919
			V48.693z M28.488,56.829h1.942v-3.962h-1.942V56.829z M28.476,50.726h1.94v-1.93h-1.94V50.726z M24.417,54.801h1.934v-1.94h-1.934
			C24.417,52.861,24.417,54.801,24.417,54.801z M30.422,44.728h-1.927v1.939h1.927V44.728z M26.353,36.611h-1.942v3.949h1.942
			V36.611z M24.432,48.721h1.929v-6.003h-1.929V48.721z M16.295,56.812h1.927v-6h-1.927V56.812z M2.039,2.017h8.117V0H0v10.156
			h2.039V2.017z M6.06,6.04V4.126H4.121V6.04H6.06z M2.017,54.844H0V65h10.156v-2.039h-8.14V54.844z M17.675,14.555
			c-4.098,4.552-5.805,9.848-5.441,15.884h2.01c-0.38-5.546,1.1-10.423,4.901-14.513C18.639,15.452,18.179,15.025,17.675,14.555z
			 M4.116,58.966v1.942h1.935v-1.942H4.116z M11.138,21.583c3.222-8.528,9.067-13.938,18.141-15.225
			c9.038-1.282,16.239,2.13,21.705,9.392c0.528-0.362,1.047-0.718,1.563-1.073c-4.712-7.169-14.765-12.509-25.535-9.96
			c-5.203,1.232-9.542,3.924-13.036,7.959c-2.119,2.447-3.694,5.208-4.672,8.339C9.984,21.227,10.579,21.411,11.138,21.583z
			 M8.175,54.798h1.94v-1.93h-1.94V54.798z M12.246,50.75h1.926v-1.96h-1.926V50.75z M12.238,46.685h1.919v-6.003h-1.919V46.685z
			 M8.175,38.651v3.972h1.921v-3.972H8.175z M8.156,50.739h1.942v-5.998H8.156V50.739z M12.24,58.874h1.937v-6.003H12.24V58.874z
			 M50.825,58.846h1.934v-3.972h-1.934C50.825,54.875,50.825,58.846,50.825,58.846z M50.832,46.776v6.004h1.919v-6.004H50.832z
			 M56.817,48.781h-1.926v1.958h1.926V48.781z M56.818,42.686h-1.927v3.968h1.927V42.686z M58.942,58.955v1.917h1.94v-1.917H58.942z
			 M62.961,62.983h-8.117V65H65V54.844h-2.039V62.983z M50.815,44.636h1.952v-8.011h-1.952V44.636z M56.813,56.839v-1.94h-1.919
			v1.94H56.813z M54.844,0v2.039h8.14v8.117H65V0H54.844z M58.968,4.108v1.931h1.942V4.108H58.968z M54.897,18.923
			c-0.614,0.266-1.204,0.523-1.787,0.777c1.505,4.279,2.236,9.937,1.664,12.769h-1.971c0-1.308,0-2.574,0-3.84
			c0-2.871-0.551-5.627-1.721-8.252C47.414,12.14,39.084,7.324,30.093,8.289c-1.329,0.143-2.634,0.51-4.019,0.787
			c0.25,0.749,0.448,1.344,0.653,1.96c0.159-0.039,0.281-0.063,0.398-0.099c2.42-0.73,4.891-1.004,7.399-0.671
			c7.469,0.993,12.571,5.013,15.244,12.062c0.944,2.493,1.092,5.111,1.025,7.748c-0.02,0.796-0.003,1.593-0.003,2.392H40.612
			c0-1.308,0.008-2.574-0.002-3.84c-0.026-3.06-1.394-5.39-3.916-7.054c-1.238-0.817-2.618-1.232-4.142-1.242v1.978
			c0.19,0.013,0.338,0.021,0.484,0.034c3.125,0.257,5.457,2.641,5.554,5.726c0.044,1.373,0.011,2.75,0.008,4.124
			c0,0.097-0.044,0.193-0.06,0.262h-8.062c-0.01-0.136-0.021-0.221-0.021-0.306c-0.002-1.248-0.015-2.496,0.002-3.744
			c0.018-1.292,0.801-2.03,2.095-2.013c1.23,0.016,1.969,0.78,1.984,2.06c0.008,0.648,0.002,1.298,0.002,1.971h2.008
			c0-0.617,0.002-1.204,0-1.791c-0.01-2.306-1.896-4.269-4.084-4.251c-2.158,0.018-4.01,1.976-4.017,4.251
			c-0.003,1.1,0.002,2.2-0.002,3.3c0,0.182-0.026,0.362-0.039,0.522h-1.999c0-1.553-0.045-3.057,0.013-4.555
			c0.055-1.441,0.699-2.67,1.599-3.642c-0.458-0.518-0.874-0.986-1.319-1.489c-1.053,1.102-1.805,2.32-2.035,3.734
			c-0.224,1.388-0.205,2.814-0.273,4.225c-0.028,0.582-0.005,1.165-0.005,1.726h-6.112c0-1.532-0.021-3.013,0.003-4.491
			c0.106-6.437,4.651-12.005,10.944-13.38c1.061-0.232,2.155-0.323,3.226-0.478v-1.893c-0.273,0-0.504-0.01-0.733,0.002
			c-6.963,0.327-13.25,5.506-14.955,12.274c-0.551,2.186-0.504,4.4-0.499,6.62c0.002,0.457,0,0.912,0,1.352h-6.138v-3.983H8.125
			V32.5H0v2.031h8.146v1.973h2.02v-1.945h2.052v3.981h2.018v-3.988h6.092v3.996h2.018v-3.981h6.113v8.028h2.018v-8.036h8.146v1.948
			h2v-1.955h2.054v6.024h2.018v-6.008h10.177v6.014h2v-6.052H65V32.5h-8.169C57,27.82,56.886,23.249,54.897,18.923z M48.755,28.377
			c-0.162-4.778-1.934-8.759-5.413-12.04c-0.463,0.515-0.884,0.983-1.342,1.492c3.117,2.878,4.67,6.386,4.748,10.548H48.755z
			 M38.191,17.758c-4.435-2.35-8.801-2.022-12.831,0.936c-3.929,2.884-5.403,6.924-4.987,11.741h1.939
			c0.008-0.188,0.013-0.333,0.021-0.476c0.065-1.201-0.011-2.431,0.223-3.598c1.035-5.164,5.47-8.447,10.775-8.071
			c4.779,0.338,8.624,3.921,9.212,8.647c0.143,1.144,0.124,2.307,0.179,3.471h1.924C45.194,23.683,41.797,19.667,38.191,17.758z
			 M36.501,48.706v-1.953h-1.919v1.953H36.501z M40.57,38.644h-1.942v8.014h1.942V38.644z M34.59,54.79h1.926v-3.968H34.59V54.79z
			 M36.509,36.593h-1.935v8.034h1.935V36.593z M40.571,48.797h-1.937v1.926h1.937V48.797z M34.577,58.867h1.93v-1.942h-1.93V58.867z
			 M42.698,54.784h1.935v-1.942h-1.935V54.784z M42.713,44.658h1.929v-1.94h-1.929V44.658z M38.651,58.854h1.931v-6.003h-1.931
			V58.854z M46.779,54.787H48.7v-6.003h-1.921V54.787z M46.779,44.631H48.7v-8.034h-1.921V44.631z M42.72,50.724h1.917v-3.972H42.72
			V50.724z"/>
	</g>
</g>
</svg>
